<?xml version="1.0" encoding="UTF-8" standalone="no"?><!DOCTYPE svg PUBLIC "-//W3C//DTD SVG 1.1//EN" "http://www.w3.org/Graphics/SVG/1.1/DTD/svg11.dtd"><svg width="1440px" height="900px" version="1.1" xmlns="http://www.w3.org/2000/svg" xmlns:xlink="http://www.w3.org/1999/xlink" xml:space="preserve" xmlns:serif="http://www.serif.com/" style="fill-rule:evenodd;clip-rule:evenodd;stroke-linejoin:round;stroke-miterlimit:1.41421;"><rect id="shape-06" x="0" y="0" width="1440" height="900" style="fill:none;"/><clipPath id="_clip1"><rect x="0" y="0" width="1440" height="900"/></clipPath><g clip-path="url(#_clip1)"><path d="M0,0l190,0l300,900l-390,0l-100,-300l0,-600Z" style="fill:url(#_Linear2);"/><path d="M550,0l-310,0l300,900l310,0l-300,-900Z" style="fill:url(#_Linear3);"/><path d="M820,0l-520,0l300,900l520,0l-300,-900Z" style="fill:url(#_Linear4);"/><path d="M1230,0l-300,0l300,900l210,0l0,-270l-210,-630Z" style="fill:url(#_Linear5);"/><path d="M1440,420l0,480l-90,0l-300,-900l250,0l140,420Z" style="fill:url(#_Linear6);"/></g><defs><linearGradient id="_Linear2" x1="0" y1="0" x2="1" y2="0" gradientUnits="userSpaceOnUse" gradientTransform="matrix(5.51091e-14,900,-900,5.51091e-14,0,2.27374e-13)"><stop offset="0" style="stop-color:#000;stop-opacity:0.0313725"/><stop offset="1" style="stop-color:#000;stop-opacity:0"/></linearGradient><linearGradient id="_Linear3" x1="0" y1="0" x2="1" y2="0" gradientUnits="userSpaceOnUse" gradientTransform="matrix(5.51091e-14,900,-900,5.51091e-14,5.68434e-14,2.27374e-13)"><stop offset="0" style="stop-color:#000;stop-opacity:0.0313725"/><stop offset="1" style="stop-color:#000;stop-opacity:0"/></linearGradient><linearGradient id="_Linear4" x1="0" y1="0" x2="1" y2="0" gradientUnits="userSpaceOnUse" gradientTransform="matrix(5.51091e-14,900,-900,5.51091e-14,5.40012e-13,2.27374e-13)"><stop offset="0" style="stop-color:#000;stop-opacity:0.0313725"/><stop offset="1" style="stop-color:#000;stop-opacity:0"/></linearGradient><linearGradient id="_Linear5" x1="0" y1="0" x2="1" y2="0" gradientUnits="userSpaceOnUse" gradientTransform="matrix(5.51091e-14,900,-900,5.51091e-14,0,2.27374e-13)"><stop offset="0" style="stop-color:#000;stop-opacity:0.0313725"/><stop offset="1" style="stop-color:#000;stop-opacity:0"/></linearGradient><linearGradient id="_Linear6" x1="0" y1="0" x2="1" y2="0" gradientUnits="userSpaceOnUse" gradientTransform="matrix(5.51091e-14,900,-900,5.51091e-14,0,2.27374e-13)"><stop offset="0" style="stop-color:#000;stop-opacity:0.0313725"/><stop offset="1" style="stop-color:#000;stop-opacity:0"/></linearGradient></defs></svg>